<svg width="54" height="48" viewBox="0 0 54 48" fill="none" xmlns="http://www.w3.org/2000/svg">
<path d="M46.7888 6.74653L44.1533 20.0947C44.1479 20.1214 44.1499 20.149 44.1589 20.1747C44.1678 20.2004 44.1836 20.2232 44.2044 20.2407C44.2252 20.2583 44.2504 20.2699 44.2771 20.2745C44.304 20.279 44.3316 20.2762 44.3569 20.2665L47.1746 19.2045C47.1814 19.2437 47.1881 19.2842 47.1945 19.3217C47.871 23.5851 47.3753 27.952 45.7603 31.9551C44.1451 35.9582 41.4717 39.4465 38.0261 42.0467C34.5803 44.6466 30.4924 46.2604 26.1997 46.7153C21.9072 47.1701 17.5717 46.4487 13.6577 44.6283C17.7618 46.9044 22.4227 47.982 27.1093 47.738C31.796 47.4941 36.32 45.9389 40.1656 43.2491C44.0114 40.5593 47.0243 36.8436 48.861 32.5249C50.6977 28.2063 51.2847 23.4586 50.5545 18.8228L53.7995 19.0862C53.8272 19.0884 53.8545 19.083 53.8794 19.0707C53.9041 19.0585 53.9249 19.0397 53.9398 19.0165C53.9548 18.9932 53.9629 18.9664 53.9638 18.9388C53.9645 18.9112 53.9579 18.884 53.9444 18.8599L47.0705 6.70037C47.0551 6.67337 47.0318 6.65174 47.0037 6.63837C46.9757 6.62499 46.9442 6.62051 46.9137 6.62554C46.8829 6.63056 46.8546 6.64486 46.8322 6.66647C46.8098 6.6881 46.7946 6.71605 46.7888 6.74653Z" fill="#141816"/>
<path d="M41.7552 34.5944C39.6263 37.302 36.8922 39.4729 33.7727 40.9329C30.653 42.3928 27.2346 43.1013 23.7918 43.0013C20.3489 42.9013 16.9773 41.9957 13.9477 40.3572C10.9181 38.7185 8.31471 36.3926 6.34654 33.5659C4.37834 30.7395 3.10012 27.4908 2.61441 24.0808C2.12873 20.6709 2.44909 17.1946 3.54982 13.9309C4.65053 10.6671 6.50095 7.70685 8.95259 5.28754C11.4042 2.86824 14.3888 1.05728 17.6669 0C13.4428 1.03818 9.59551 3.24271 6.56399 6.36212C3.53244 9.48153 1.43871 13.3902 0.52162 17.6422C-0.395472 21.8943 -0.098989 26.3185 1.37725 30.41C2.8535 34.5018 5.45004 38.096 8.8707 40.7831C12.2914 43.4702 16.3984 45.1417 20.7232 45.6069C25.0481 46.0721 29.4166 45.3125 33.3306 43.4145C37.2445 41.5165 40.5462 38.5567 42.8589 34.8727C45.1715 31.1887 46.4022 26.9287 46.4106 22.579C46.0999 26.9606 44.4777 31.1473 41.7552 34.5944Z" fill="#416853"/>
<path d="M36.9114 11.3272C35.554 13.0561 34.0103 14.6304 32.3083 16.0216C32.2911 16.0357 32.277 16.0535 32.2675 16.0737C32.258 16.0939 32.253 16.116 32.253 16.1383V37.7368C32.253 37.9106 32.1978 38.0799 32.0953 38.2202C31.9928 38.3607 31.8485 38.4648 31.6831 38.5177L31.6654 38.5234C31.5428 38.5628 31.4126 38.5725 31.2855 38.5519C31.1583 38.5315 31.0377 38.4811 30.9338 38.4053C30.8298 38.3292 30.7451 38.2299 30.6867 38.1152C30.6284 38.0002 30.598 37.8733 30.598 37.7445V17.608C30.598 17.5803 30.5906 17.5532 30.5763 17.5295C30.5621 17.5058 30.5415 17.4865 30.5168 17.4737C30.4924 17.4608 30.4648 17.455 30.4372 17.4568C30.4096 17.4586 30.3829 17.4679 30.3602 17.4838C28.1065 19.0356 25.6496 20.2691 23.0589 21.1495C23.029 21.1596 23.003 21.1788 22.9844 21.2044C22.9661 21.2301 22.9562 21.2609 22.9562 21.2925V38.7361C22.9562 38.8571 22.9292 38.9768 22.8774 39.0861C22.8256 39.1957 22.7502 39.2923 22.6568 39.3692C22.5632 39.4461 22.4537 39.5011 22.3363 39.5308C22.2188 39.5602 22.0963 39.5634 21.9775 39.5398L21.9454 39.5335C21.7601 39.4968 21.5933 39.3968 21.4736 39.2506C21.3539 39.1045 21.2887 38.9214 21.2892 38.7325C21.2935 36.8544 21.2978 34.3257 21.3009 34.3275V21.886C21.3009 21.8628 21.2956 21.8399 21.2853 21.8191C21.275 21.7983 21.2601 21.7801 21.2417 21.766C21.2233 21.7519 21.2018 21.7422 21.1791 21.7377C21.1563 21.7332 21.1328 21.734 21.1104 21.7401L21.0355 21.7598C18.922 22.3152 17.052 23.5548 15.7174 25.2852C14.3829 27.0158 13.659 29.1394 13.6588 31.3246V34.1895C13.6592 34.3494 13.6127 34.5063 13.525 34.64C13.4373 34.7739 13.3122 34.8792 13.1654 34.9427C13.0185 35.0061 12.8562 35.0253 12.6985 34.9975C12.5409 34.9699 12.3949 34.8966 12.2785 34.7866C9.03242 31.6667 6.96844 27.5179 6.43818 23.0468C5.90792 18.5759 6.94419 14.0593 9.37046 10.2667C11.7967 6.47402 15.4629 3.6399 19.7444 2.24712C24.0258 0.854343 28.6577 0.989074 32.8511 2.62837C29.5495 1.05883 25.8881 0.401317 22.2466 0.724036C18.6051 1.04675 15.1164 2.33794 12.1422 4.46365C9.1681 6.58938 6.81693 9.47217 5.33261 12.813C3.84831 16.1538 3.28495 19.8309 3.70098 23.463C4.11702 27.0947 5.49729 30.5493 7.69862 33.4679C9.89995 36.3866 12.8421 38.663 16.2199 40.0612C19.5977 41.4591 23.2881 41.928 26.9081 41.4191C30.5284 40.9099 33.9461 39.4414 36.8074 37.1659C37.8055 36.4771 38.7366 35.6958 39.5879 34.8321L39.6772 34.7364C39.8182 34.5852 39.8965 34.3861 39.8961 34.1793V7.53862C39.8961 7.53862 39.8961 7.44358 39.8961 7.31754C39.8963 7.28385 39.8852 7.25104 39.8648 7.22427C39.8442 7.19752 39.8155 7.17834 39.7829 7.16976C39.7503 7.16118 39.7157 7.16369 39.6847 7.17689C39.6537 7.19008 39.6281 7.2132 39.6116 7.24264C38.8244 8.67551 37.9213 10.0416 36.9114 11.3272Z" fill="#89D7AB"/>
</svg>
